<?xml version="1.0" standalone="no"?><!DOCTYPE svg PUBLIC "-//W3C//DTD SVG 1.1//EN" "http://www.w3.org/Graphics/SVG/1.1/DTD/svg11.dtd"><svg t="1559887705658" class="icon" style="" viewBox="0 0 1024 1024" version="1.1" xmlns="http://www.w3.org/2000/svg" p-id="5581" xmlns:xlink="http://www.w3.org/1999/xlink" width="200" height="200"><defs><style type="text/css"></style></defs><path d="M864.064 158.56 864.064 85.504l-30.72 0L833.344 158.56l-110.704 0L722.64 85.504l-30.752 0L691.888 158.56l-123.552 0L568.336 85.504 537.6 85.504 537.6 158.56l-128.288 0L409.312 85.504l-30.72 0L378.592 158.56l-122.992 0L255.6 85.504l-30.752 0L224.848 158.56 124.88 158.56l0 412.128 27.904 0L152.784 359.936 936.16 359.936l0 550.688L152.784 910.624 152.784 661.872 124.88 661.872l0 276.624 839.152 0L964.032 158.56 864.064 158.56zM936.16 332.048 152.784 332.048l0-145.632 72.064 0 0 65.664 30.752 0 0-65.664 122.992 0 0 65.664 30.72 0 0-65.664L537.6 186.416l0 65.664 30.752 0 0-65.664 123.552 0 0 65.664 30.752 0 0-65.664 110.704 0 0 65.664 30.72 0 0-65.664 72.096 0L936.176 332.048z" p-id="5582" fill="#1afa29"></path><path d="M320 770.16 339.392 789.632 512.736 616.288 339.392 442.944 320 462.352 460.176 602.56 59.968 602.56 59.968 630.016 460.176 630.016Z" p-id="5583" fill="#1afa29"></path></svg>