<?xml version="1.0" standalone="no"?><!DOCTYPE svg PUBLIC "-//W3C//DTD SVG 1.1//EN" "http://www.w3.org/Graphics/SVG/1.1/DTD/svg11.dtd"><svg t="1560053313459" class="icon" style="" viewBox="0 0 1024 1024" version="1.1" xmlns="http://www.w3.org/2000/svg" p-id="2260" xmlns:xlink="http://www.w3.org/1999/xlink" width="200" height="200"><defs><style type="text/css"></style></defs><path d="M884.4 907.5H139.6c-26.4 0-50-13.6-63.2-36.5-13.2-22.9-13.2-50.1 0-73l372.4-645c13.2-22.9 36.8-36.5 63.2-36.5 26.4 0 50 13.6 63.2 36.5l372.4 645c13.2 22.9 13.2 50.1 0 73s-36.8 36.5-63.2 36.5zM124.9 826c-4.4 7.7-1.5 14.4 0 17s5.9 8.5 14.7 8.5h744.8c8.9 0 13.2-5.9 14.7-8.5s4.4-9.3 0-17L526.7 181c-4.4-7.7-11.8-8.5-14.7-8.5s-10.3 0.8-14.7 8.5L124.9 826z" fill="#333333" p-id="2261"></path><path d="M484 342h56v340h-56zM484 731.9h56v56h-56z" fill="#333333" p-id="2262"></path></svg>