<?xml version="1.0" standalone="no"?><!DOCTYPE svg PUBLIC "-//W3C//DTD SVG 1.1//EN" "http://www.w3.org/Graphics/SVG/1.1/DTD/svg11.dtd"><svg t="1559981179490" class="icon" style="" viewBox="0 0 1024 1024" version="1.1" xmlns="http://www.w3.org/2000/svg" p-id="2161" xmlns:xlink="http://www.w3.org/1999/xlink" width="200" height="200"><defs><style type="text/css"></style></defs><path d="M1024 479.5648 798.1184 277.7344l0 124.9792C226.1376 426.6624 255.9744 806.4 268.8 870.3744c57.6-166.3232 200.3712-324.672 529.3184-324.672l0 133.7856L1024 479.5648z" p-id="2162"></path><path d="M844.8 921.6c0 28.2368-22.9632 51.2-51.2 51.2L102.4 972.8c-28.2368 0-51.2-22.9632-51.2-51.2L51.2 230.4c0-28.2368 22.9632-51.2 51.2-51.2l691.2 0c28.2368 0 51.2 22.9632 51.2 51.2l51.2 0c0-56.32-46.08-102.4-102.4-102.4L102.4 128c-56.32 0-102.4 46.08-102.4 102.4l0 691.2c0 56.32 46.08 102.4 102.4 102.4l691.2 0c56.32 0 102.4-46.08 102.4-102.4L896 742.4l-51.2 0L844.8 921.6z" p-id="2163"></path></svg>